<?xml version="1.0" encoding="UTF-8" standalone="no"?>
<!-- Created with Inkscape (http://www.inkscape.org/) -->

<svg
   xmlns:dc="http://purl.org/dc/elements/1.1/"
   xmlns:cc="http://creativecommons.org/ns#"
   xmlns:rdf="http://www.w3.org/1999/02/22-rdf-syntax-ns#"
   xmlns:svg="http://www.w3.org/2000/svg"
   xmlns="http://www.w3.org/2000/svg"
   xmlns:sodipodi="http://sodipodi.sourceforge.net/DTD/sodipodi-0.dtd"
   xmlns:inkscape="http://www.inkscape.org/namespaces/inkscape"
   width="210mm"
   height="297mm"
   id="svg2"
   version="1.1"
   inkscape:version="0.47 r22583"
   sodipodi:docname="handbell.svg">
  <sodipodi:namedview
     id="base"
     pagecolor="#ffffff"
     bordercolor="#666666"
     borderopacity="1.0"
     inkscape:pageopacity="0.0"
     inkscape:pageshadow="2"
     inkscape:zoom="0.35"
     inkscape:cx="1032.1071"
     inkscape:cy="638.22441"
     inkscape:document-units="px"
     inkscape:current-layer="layer1"
     showgrid="false"
     inkscape:window-width="1440"
     inkscape:window-height="875"
     inkscape:window-x="0"
     inkscape:window-y="0"
     inkscape:window-maximized="1" />
  <defs
     id="defs4">
    <inkscape:perspective
       sodipodi:type="inkscape:persp3d"
       inkscape:vp_x="0 : 526.18109 : 1"
       inkscape:vp_y="0 : 1000 : 0"
       inkscape:vp_z="744.09448 : 526.18109 : 1"
       inkscape:persp3d-origin="372.04724 : 350.78739 : 1"
       id="perspective10" />
    <inkscape:perspective
       id="perspective2824"
       inkscape:persp3d-origin="0.5 : 0.33333333 : 1"
       inkscape:vp_z="1 : 0.5 : 1"
       inkscape:vp_y="0 : 1000 : 0"
       inkscape:vp_x="0 : 0.5 : 1"
       sodipodi:type="inkscape:persp3d" />
  </defs>
  <metadata
     id="metadata7">
    <rdf:RDF>
      <cc:Work
         rdf:about="">
        <dc:format>image/svg+xml</dc:format>
        <dc:type
           rdf:resource="http://purl.org/dc/dcmitype/StillImage" />
        <dc:title />
      </cc:Work>
    </rdf:RDF>
  </metadata>
  <g
     inkscape:label="Calque 1"
     inkscape:groupmode="layer"
     id="layer1">
    <g
       id="g2880"
       transform="matrix(25.767904,0,0,29.246076,-6453.0987,-6804.1509)">
      <path
         style="fill:#fecb32"
         d="m 256.9302,265.21772 c -2.98379,-1.2766 -3.59031,-2.61663 -1.84132,-4.06817 0.9015,-0.74818 1.48899,-2.95384 1.48899,-5.59025 0,-3.51454 0.47137,-4.66336 2.44364,-5.95564 2.18739,-1.43323 2.38449,-2.10056 1.87957,-6.36377 -0.64784,-5.46999 0.81426,-9.0812 3.67679,-9.0812 2.86253,0 4.32463,3.61121 3.67679,9.0812 -0.50492,4.26321 -0.30782,4.93054 1.87957,6.36377 1.94148,1.2721 2.44364,2.45359 2.44364,5.74934 0,2.31447 0.67424,4.89323 1.52523,5.83357 1.36966,1.51346 1.35715,1.82484 -0.12266,3.05298 -1.9524,1.62034 -13.94165,2.30817 -17.05024,0.97817 z"
         id="path2890" />
      <path
         style="fill:#fe9800"
         d="m 256.9302,265.21772 c -2.98379,-1.2766 -3.59031,-2.61663 -1.84132,-4.06817 0.9015,-0.74818 1.48899,-2.95384 1.48899,-5.59025 0,-3.51454 0.47137,-4.66336 2.44364,-5.95564 2.18739,-1.43323 2.38449,-2.10056 1.87957,-6.36377 -0.64784,-5.46999 0.81426,-9.0812 3.67679,-9.0812 2.86253,0 4.32463,3.61121 3.67679,9.0812 -0.50492,4.26321 -0.30782,4.93054 1.87957,6.36377 1.94148,1.2721 2.44364,2.45359 2.44364,5.74934 0,2.31447 0.67424,4.89323 1.52523,5.83357 1.36966,1.51346 1.35715,1.82484 -0.12266,3.05298 -1.9524,1.62034 -13.94165,2.30817 -17.05024,0.97817 z m 5.64767,-7.71402 c 0,-3.46276 0.35533,-4.34963 1.75,-4.36778 1.05557,-0.0137 0.44026,-0.66825 -1.55059,-1.64941 -2.48642,-1.22538 -3.58413,-1.3431 -4.45,-0.47723 -0.86588,0.86588 -0.8534,1.14941 0.0506,1.14941 1.49141,0 1.65916,9.59819 0.18369,10.51008 -0.55897,0.34546 -0.7393,1.07634 -0.40072,1.62416 1.38573,2.24217 4.41703,-2.4171 4.41703,-6.78923 z"
         id="path2888" />
      <path
         style="fill:#986500"
         d="m 256.9302,265.21772 c -2.98379,-1.2766 -3.59031,-2.61663 -1.84132,-4.06817 0.9015,-0.74818 1.48899,-2.95384 1.48899,-5.59025 0,-3.51454 0.47137,-4.66336 2.44364,-5.95564 2.18739,-1.43323 2.38449,-2.10056 1.87957,-6.36377 -0.64784,-5.46999 0.81426,-9.0812 3.67679,-9.0812 2.86253,0 4.32463,3.61121 3.67679,9.0812 -0.50492,4.26321 -0.30782,4.93054 1.87957,6.36377 1.94148,1.2721 2.44364,2.45359 2.44364,5.74934 0,2.31447 0.67424,4.89323 1.52523,5.83357 1.36966,1.51346 1.35715,1.82484 -0.12266,3.05298 -1.9524,1.62034 -13.94165,2.30817 -17.05024,0.97817 z m 14.34488,-0.85074 c 0.78959,-0.50194 0.87992,-1.26281 0.26532,-2.23468 -0.51255,-0.81049 -0.94569,-3.04861 -0.96253,-4.97361 -0.0461,-5.27172 -1.10345,-6.21565 -7.13073,-6.36604 -5.36927,-0.13396 -5.36927,-0.13396 -5.6889,4.36423 -0.17579,2.47401 -1.02537,5.27805 -1.88796,6.23119 -1.44041,1.59164 -1.37356,1.81093 0.81963,2.68842 2.88308,1.15352 12.91334,1.3533 14.58517,0.29049 z"
         id="path2886" />
      <path
         style="fill:#653200"
         d="m 256.9302,265.21772 c -2.98379,-1.2766 -3.59031,-2.61663 -1.84132,-4.06817 0.9015,-0.74818 1.48899,-2.95384 1.48899,-5.59025 0,-3.51454 0.47137,-4.66336 2.44364,-5.95564 2.18739,-1.43323 2.38449,-2.10056 1.87957,-6.36377 -0.64784,-5.46999 0.81426,-9.0812 3.67679,-9.0812 2.86253,0 4.32463,3.61121 3.67679,9.0812 -0.50492,4.26321 -0.30782,4.93054 1.87957,6.36377 1.94148,1.2721 2.44364,2.45359 2.44364,5.74934 0,2.31447 0.67424,4.89323 1.52523,5.83357 1.36966,1.51346 1.35715,1.82484 -0.12266,3.05298 -1.9524,1.62034 -13.94165,2.30817 -17.05024,0.97817 z m 15.21455,-1.08446 c 2.47946,-0.94269 2.57102,-1.16471 1.13472,-2.7518 -0.85929,-0.94951 -1.70618,-3.75057 -1.88198,-6.22458 -0.31962,-4.49819 -0.31962,-4.49819 -5.18685,-4.15399 -3.30572,0.23377 -4.65295,-0.002 -4.19931,-0.73653 0.4577,-0.74058 -0.0562,-0.81469 -1.63277,-0.23547 -1.84178,0.67665 -2.36444,1.7208 -2.62032,5.23472 -0.17579,2.41421 -1.02537,5.16932 -1.88796,6.12246 -1.44041,1.59164 -1.37356,1.81093 0.81963,2.68842 3.22106,1.28875 12.12843,1.32147 15.45484,0.0568 z m -6.50418,-18.52292 c 1.10126,-1.36228 1.55696,-8.16533 0.61036,-9.11192 -1.53199,-1.53199 -3.27417,-1.01836 -3.4892,1.02868 -0.3463,3.29682 1.09778,13.38909 1.5928,11.13159 0.24121,-1.1 0.81993,-2.47176 1.28604,-3.04835 z m -1.87928,-3.45165 c -0.18359,-4.20551 1.18909,-7.0776 2.16596,-4.53191 0.34524,0.89968 0.21059,1.37799 -0.29922,1.06291 -0.50981,-0.31508 -1.10401,1.12405 -1.32044,3.19806 -0.39351,3.77094 -0.39351,3.77094 -0.5463,0.27094 z m 2.42075,5.27083 c -0.3323,-0.33229 -0.56864,0.25834 -0.52522,1.3125 0.048,1.16495 0.28494,1.4019 0.60416,0.60417 0.28887,-0.72188 0.25335,-1.58437 -0.079,-1.91667 z"
         id="path2884" />
      <path
         style="fill:#000000"
         d="m 256.9302,265.21772 c -2.98379,-1.2766 -3.59031,-2.61663 -1.84132,-4.06817 0.9015,-0.74818 1.48899,-2.95384 1.48899,-5.59025 0,-3.51454 0.47137,-4.66336 2.44364,-5.95564 2.18739,-1.43323 2.38449,-2.10056 1.87957,-6.36377 -0.64784,-5.46999 0.81426,-9.0812 3.67679,-9.0812 2.86253,0 4.32463,3.61121 3.67679,9.0812 -0.50492,4.26321 -0.30782,4.93054 1.87957,6.36377 1.94148,1.2721 2.44364,2.45359 2.44364,5.74934 0,2.31447 0.67424,4.89323 1.52523,5.83357 1.36966,1.51346 1.35715,1.82484 -0.12266,3.05298 -1.9524,1.62034 -13.94165,2.30817 -17.05024,0.97817 z m 15.21455,-1.08446 c 2.47946,-0.94269 2.57102,-1.16471 1.13472,-2.7518 -0.85929,-0.94951 -1.70618,-3.74615 -1.88198,-6.21476 -0.31962,-4.48838 -0.31962,-4.48838 -6.81962,-4.48838 -6.5,0 -6.5,0 -6.81963,4.48838 -0.17579,2.46861 -1.02537,5.26823 -1.88796,6.22137 -1.44041,1.59164 -1.37356,1.81093 0.81963,2.68842 3.22106,1.28875 12.12843,1.32147 15.45484,0.0568 z m -4.79025,-19.23174 c 0.37448,-7.0975 -0.37941,-9.74283 -2.77663,-9.74283 -2.39722,0 -3.15111,2.64533 -2.77663,9.74283 0.256,4.85191 0.46303,5.24282 2.77663,5.24282 2.3136,0 2.52063,-0.39091 2.77663,-5.24282 z"
         id="path2882" />
    </g>
  </g>
</svg>
